<svg viewBox="0 0 811.1 180.7" xmlns="http://www.w3.org/2000/svg"><g fill="#005daa"><path d="M90.5 20.1c-4.7-4.9-9.9-8.5-15.6-10.9S63 5.6 56.2 5.6c-7.6 0-14.3 1.2-20.2 3.7s-11.4 6.4-16.3 11.6c-4.6 4.7-8.1 10.2-10.5 16.5-2.5 6.3-3.7 12.9-3.7 19.9 0 15 4.9 27.4 14.8 37.4 9.8 9.9 22.2 14.9 37.1 14.9 6.4 0 12.4-1.2 18-3.6 5.6-2.5 10.7-6 15.3-10.8v12.2h18.1V8.1H90.5zm-9.1 62.2C74.7 89.2 67 92.6 58.2 92.6c-9.6 0-17.7-3.4-24.3-10.2S24 67.2 24 57.1c0-9.6 3.3-17.7 9.9-24.3s14.6-9.9 24-9.9c9.1 0 17 3.5 23.6 10.4 6.6 7 10 15.3 10 25.1-.1 9.1-3.4 17.1-10.1 23.9zm97.5-.8L147.1 8.1h-19.2l43.4 99.2h13.5l45.5-99.2h-18.8zm72 25.9h17.7V8.1h-17.7zm174 0h17.7V8.1h-17.7zm68.2-99.3h-17.7v99.2h71.1V89.7h-53.4zm153 12.2c-5-5.1-10.6-8.9-16.8-11.4-6.1-2.6-12.8-3.9-20-3.9-6.7 0-13.2 1.4-19.5 4.3s-11.9 7-16.9 12.3c-4.6 4.9-8.1 10.4-10.5 16.5s-3.6 12.7-3.6 19.7c0 6.7 1.3 13.3 3.9 19.8s6.2 12.1 10.9 17c4.9 5.1 10.4 9 16.5 11.6s12.8 3.9 20.1 3.9c7.1 0 13.8-1.4 20.1-4.3 6.3-2.8 11.9-7 17-12.6 4.4-4.8 7.8-10.4 10.2-16.8s3.7-13 3.7-19.8c0-6.7-1.3-13.1-3.9-19.4s-6.3-11.9-11.2-16.9zm-12.7 62.1c-6.2 6.6-13.9 10-23.1 10-9.4 0-17.2-3.3-23.5-9.9s-9.4-14.9-9.4-24.8c0-10 3.1-18.3 9.4-25 6.3-6.6 14.1-10 23.3-10 9.3 0 17.1 3.3 23.3 9.8s9.3 14.9 9.3 24.9-3.1 18.3-9.3 25zm127.8-64.5c-6.9-7.6-16.9-11.5-29.9-11.5-5.8 0-10.9 1-15.4 3.1s-8.6 5.3-12.3 9.8V8.1h-17.2v99.2h17.9V62.2c0-13.8 2-23.7 6-29.7s10.4-9 19.3-9c8.2 0 14.2 2.6 18.1 7.6 3.9 5.1 5.9 12.9 5.9 23.4v52.8h17.9V50.7c.1-14.2-3.3-25.2-10.3-32.8zm-408.5 49h24.5c-.2.7-1.2 7.9-8.1 15.5-6.1 6.7-13.9 9.7-23.1 10-5.8.2-15.5-1.7-23.5-9.9-6.3-6.6-9.4-14.9-9.4-24.8 0-10 3.1-18.3 9.4-25 1.2-1.3 9.6-10 23.4-9.9 13.9.1 21.4 8.1 23.5 10.5H391c-1.5-2.8-3.1-5.5-5.1-8.1-.2-.3-5.3-7-11.3-11.3C368.2 9.2 358.1 5 345 5c-19 0-30.7 10.4-35.6 15.6-2.3 2.4-4.4 5.1-6.2 8-2 3-3.7 6.2-5 9.5-1.7 4.4-2.9 9-3.3 14-2.2 25.8 12.1 40 14.5 42.5 4.9 5.1 10.4 9 16.5 11.6s12.8 4.1 20.1 3.9c21.2-.5 35.2-12.3 42.5-23.2 3-4.4 5-9.4 6.4-14.8 2.1-8.1 2.1-18 2.1-18.4v-2.1h-44.2v15.3zM783.6 21.9V9.6h-4.4V8.1h10.4v1.5h-4.4v12.2h-1.6zM803.7 21.9V10.6L799 21.9h-.7l-4.7-11.3v11.3h-1.7V8.1h2.5l4.3 10.3L803 8.1h2.5v13.7h-1.8z"/></g><path d="M308.2 164.4c-1.1 2.4-2.8 3.5-5.4 3.5-4.5 0-5.8-2.9-5.8-6.9 0-6.4 6.3-6.7 11-6.5.1-2.8.1-5.8-3.5-5.8-2.3 0-3.5 1.5-3.3 3.8h-3.7c.2-4.7 2.7-6.3 7.1-6.3 5.4 0 6.8 2.8 6.8 6.3v10.1c0 1.7.2 3.4.4 5H308v-3.2zm-7.7-3.2c0 2 1 3.9 3.3 3.9 2.1 0 4.7-1.3 4.3-8.1-3.3 0-7.6-.3-7.6 4.2zM329.3 167.4h-3.6v-30.1h6.2l7.6 25.3h.1l7.7-25.3h6.3v30.1h-3.8v-26.8h-.1l-8.4 26.8h-3.6l-8.3-26.8h-.1zM358.1 157.2c0-6.2.7-11.3 8-11.3s8 5.1 8 11.3c0 9.3-3.5 10.6-8 10.6s-8-1.3-8-10.6zm12.4-1.4c0-5.8-1.8-7-4.4-7s-4.4 1.2-4.4 7c0 6.8.9 9.3 4.4 9.3s4.4-2.5 4.4-9.3zM379.1 146.4v-4l3.4-1.5v5.6h4.6v2.6h-4.6V162c0 1.3 0 3 3.1 3 .2 0 .8-.1 1.5-.2v2.6c-1.1.1-2.3.3-3.4.3-3.3 0-4.7-1.3-4.7-3.8v-15h-3.5v-2.6h3.6zM388.8 157.2c0-6.2.7-11.3 8-11.3s8 5.1 8 11.3c0 9.3-3.5 10.6-8 10.6s-8-1.3-8-10.6zm12.5-1.4c0-5.8-1.8-7-4.4-7s-4.4 1.2-4.4 7c0 6.8.9 9.3 4.4 9.3s4.4-2.5 4.4-9.3zM412.2 149.6c1.5-3.2 3.2-3.6 6.6-3.6v3.5c-.3 0-.6-.1-.9-.1s-.6-.1-.9-.1c-3.8 0-4.8 2.9-4.8 5.7v12.4h-3.4v-21h3.4zM420.8 157.2c0-6.2.7-11.3 8-11.3s8 5.1 8 11.3c0 9.3-3.5 10.6-8 10.6s-8-1.3-8-10.6zm12.4-1.4c0-5.8-1.8-7-4.4-7s-4.4 1.2-4.4 7c0 6.8.9 9.3 4.4 9.3s4.4-2.5 4.4-9.3zM444.1 167.4h-3.4v-30.1h3.4zM459.1 164.4c-1.1 2.4-2.8 3.5-5.4 3.5-4.5 0-5.8-2.9-5.8-6.9 0-6.4 6.2-6.7 11-6.5.1-2.8.1-5.8-3.5-5.8-2.3 0-3.5 1.5-3.3 3.8h-3.7c.2-4.7 2.7-6.3 7.1-6.3 5.4 0 6.8 2.8 6.8 6.3v10.1c0 1.7.2 3.4.4 5h-3.8v-3.2zm-7.7-3.2c0 2 1 3.9 3.3 3.9 2.1 0 4.7-1.3 4.3-8.1-3.2 0-7.6-.3-7.6 4.2zM479.6 158.5v.9c0 4.1 2.6 5.4 5 5.4 3 0 5.4-1.3 5.4-4.9 0-6.7-13.5-5.9-13.5-15 0-5.3 3.8-8.2 8.8-8.2 5.5 0 8.6 2.7 8.3 8.8h-4c0-3.3-1-5.5-4.6-5.5-2.3 0-4.6 1.2-4.6 4.4 0 6.6 13.5 5.7 13.5 15.2 0 6.3-4.4 8.4-9.3 8.4-8.9.1-8.9-6.7-8.8-9.6h3.8zM497.7 157.2c0-6.2.7-11.3 8-11.3s8 5.1 8 11.3c0 9.3-3.5 10.6-8 10.6s-8-1.3-8-10.6zm12.4-1.4c0-5.8-1.8-7-4.4-7s-4.4 1.2-4.4 7c0 6.8.9 9.3 4.4 9.3s4.4-2.5 4.4-9.3zM521 167.4h-3.4v-30.1h3.4zM536.6 146.4h3.4v16.7c0 1.5.1 2.9.2 4.4h-3.6V165h-.1c-1.1 1.9-3.1 3-5.3 3-3.7 0-5.7-1.8-5.7-5.4v-16h3.4V161c0 2.5 1.2 4.2 3.6 4.2 1.8 0 4.1-1.4 4.1-4.9zM546 146.4v-4l3.4-1.5v5.6h4.6v2.6h-4.6V162c0 1.3 0 3 3.1 3 .2 0 .8-.1 1.5-.2v2.6c-1.1.1-2.3.3-3.4.3-3.2 0-4.7-1.3-4.7-3.8v-15h-3.5v-2.6h3.6zM556.3 137.3h3.8v3.7h-3.8zm3.6 30.1h-3.4v-21h3.4zM563.7 157.2c0-6.2.7-11.3 8-11.3s8 5.1 8 11.3c0 9.3-3.5 10.6-8 10.6s-8-1.3-8-10.6zm12.4-1.4c0-5.8-1.8-7-4.4-7s-4.4 1.2-4.4 7c0 6.8.9 9.3 4.4 9.3s4.4-2.5 4.4-9.3zM595 167.4v-14.6c0-2.2-.8-4.1-3.7-4.1-3.8 0-4.3 3.3-4.3 6.2v12.5h-3.4v-16.7c0-1.5-.1-2.9-.2-4.4h3.6v2.7h.2c1.3-2.4 2.9-3.1 5.6-3.1 4.5 0 5.6 2.7 5.6 6.9v14.6zM609 167.8c-4.5 0-7.4-2-7.2-6.8h3.9c0 1.2 0 4 3.5 4 2 0 3.6-1 3.6-3.2 0-3.8-10.5-3.8-10.5-10.1 0-2.2 1.3-5.8 7.3-5.8 3.8 0 7 1.8 6.7 6h-3.8c0-2.2-1.1-3.4-3.3-3.4-1.8 0-3.3 1-3.3 2.8 0 3.7 10.5 3.6 10.5 10 0 4.8-3.2 6.5-7.4 6.5zM642.1 145.6c0-1.7-.1-3.4-.9-4.4s-2.6-1.3-3.4-1.3c-3.2 0-4.4 1.9-4.5 2.3-.1.3-.9 1.1-.9 6.3v8c0 7.4 2.4 8.3 5.4 8.3 1.2 0 4.7-.4 4.8-6.3h4c.2 9.5-6.5 9.5-8.5 9.5-3.8 0-9.5-.2-9.5-11.9v-8.5c0-8.5 3.8-10.9 9.7-10.9 6 0 8.3 3.1 7.9 8.9zM650.2 157.2c0-6.2.7-11.3 8-11.3s8 5.1 8 11.3c0 9.3-3.5 10.6-8 10.6s-8-1.3-8-10.6zm12.4-1.4c0-5.8-1.8-7-4.4-7s-4.4 1.2-4.4 7c0 6.8.9 9.3 4.4 9.3s4.4-2.5 4.4-9.3zM680.4 167.4v-14.6c0-2.1-.6-4.1-3.3-4.1-1 0-2.5.6-3 1.4-.6 1-.8 2.3-.8 3.1v14.2h-3.4v-16.7c0-1.5-.1-2.9-.2-4.4h3.6v2.6h.1c1-2.2 2.8-3 5.3-3 1.9 0 4.1.8 4.9 2.7 1.2-2.3 3.1-2.7 5-2.7 2.2 0 5.8.5 5.8 5.5v16H691v-14.6c0-2.1-.6-4.1-3.3-4.1-1.3 0-1.7 0-2.6.8-1 .8-1.2 2.9-1.2 3.7v14.2zM702.3 148.9c1.2-2 2.7-2.9 4.9-2.9 3.4 0 6.8 1.3 6.8 10.6 0 5.2-.2 11.3-7 11.3-2 0-3.5-.9-4.6-2.5h-.1v10.1h-3.4v-29h3.4zm8.1 7.7c0-3.2 0-7.8-4.3-7.8-4.2 0-3.8 5.8-3.8 9 0 2.8.2 7.3 4 7.3 3.6 0 4.1-2.9 4.1-8.5zM728.6 164.4c-1.1 2.4-2.8 3.5-5.4 3.5-4.5 0-5.8-2.9-5.8-6.9 0-6.4 6.2-6.7 11-6.5.1-2.8.1-5.8-3.5-5.8-2.3 0-3.5 1.5-3.3 3.8h-3.7c.2-4.7 2.7-6.3 7.1-6.3 5.4 0 6.8 2.8 6.8 6.3v10.1c0 1.7.2 3.4.4 5h-3.8v-3.2zm-7.7-3.2c0 2 1 3.9 3.3 3.9 2.1 0 4.7-1.3 4.3-8.1-3.3 0-7.6-.3-7.6 4.2zM748 167.4v-14.6c0-2.2-.8-4.1-3.7-4.1-3.8 0-4.3 3.3-4.3 6.2v12.5h-3.4v-16.7c0-1.5-.1-2.9-.2-4.4h3.6v2.7h.2c1.3-2.4 2.9-3.1 5.6-3.1 4.5 0 5.6 2.7 5.6 6.9v14.6zM762.5 163.5l5.1-17.1h3.7l-9.5 29h-3.5l2.4-8-7.1-21h4z"/></svg>